<svg width="16" height="16" xmlns="http://www.w3.org/2000/svg" fill-opacity="context-fill-opacity" fill="context-fill">

 <g>
  <title>Layer 1</title>
  <path stroke-width="0" id="svg_1" d="m3.59375,3.59375c0.25836,-0.25834 0.67722,-0.25834 0.93556,0l2.17837,2.17838l2.17838,-2.17838c0.25834,-0.25834 0.6772,-0.25834 0.93555,0c0.25836,0.25836 0.25836,0.67722 0,0.93556l-2.17837,2.17837l2.17837,2.17838c0.25836,0.25834 0.25836,0.6772 0,0.93555c-0.25834,0.25836 -0.6772,0.25836 -0.93555,0l-2.17838,-2.17837l-2.17837,2.17837c-0.25834,0.25836 -0.6772,0.25836 -0.93556,0c-0.25834,-0.25834 -0.25834,-0.6772 0,-0.93555l2.17838,-2.17838l-2.17838,-2.17837c-0.25834,-0.25834 -0.25834,-0.6772 0,-0.93556zm-0.85529,-3.50144c-1.46143,0 -2.64615,1.18472 -2.64615,2.64615l0,7.93845c0,1.46148 1.18472,2.64617 2.64615,2.64617l7.93845,0c1.46148,0 2.64617,-1.18468 2.64617,-2.64617l0,-7.93845c0,-1.46143 -1.18468,-2.64615 -2.64617,-2.64615l-7.93845,0zm-1.32308,2.64615c0,-0.73072 0.59235,-1.32308 1.32308,-1.32308l7.93845,0c0.73075,0 1.32309,0.59235 1.32309,1.32308l0,7.93845c0,0.73075 -0.59234,1.32309 -1.32309,1.32309l-7.93845,0c-0.73072,0 -1.32308,-0.59234 -1.32308,-1.32309l0,-7.93845zm13.23077,-0.96905c0.79094,0.45753 1.32308,1.31269 1.32308,2.29214l0,7.27691c0,2.55751 -2.07326,4.63077 -4.63077,4.63077l-7.27691,0c-0.97945,0 -1.8346,-0.53214 -2.29214,-1.32308l9.56905,0c1.82677,0 3.30769,-1.48092 3.30769,-3.30769l0,-9.56905z"/>
 </g>
</svg>