<svg width="16" height="16" xmlns="http://www.w3.org/2000/svg" fill-opacity="context-fill-opacity" fill="context-fill">

 <g>
  <title>Layer 1</title>
  <path id="svg_1" d="m13.39063,1.71094c0.98738,0 1.79688,0.80949 1.79688,1.79688l0,8.98438c0,0.98738 -0.80949,1.79688 -1.79688,1.79688l-10.78125,0c-0.98738,0 -1.79688,-0.80949 -1.79688,-1.79688l0,-8.98438c0,-0.98738 0.80949,-1.79688 1.79688,-1.79688l10.78125,0zm0,0.89844l-6.28906,0l0,10.78125l6.28906,0c0.50133,0 0.89844,-0.39711 0.89844,-0.89844l0,-8.98438c0,-0.50133 -0.39711,-0.89844 -0.89844,-0.89844zm-7.1875,0l-3.59375,0c-0.50133,0 -0.89844,0.39711 -0.89844,0.89844l0,8.98438c0,0.50133 0.39711,0.89844 0.89844,0.89844l3.59375,0l0,-10.78125zm-1.34766,1.79688a0.44922,0.44922 0 0 1 0.44922,0.44922a0.44922,0.44922 0 0 1 -0.44922,0.44922l-1.79688,0a0.44922,0.44922 0 0 1 -0.44922,-0.44922a0.44922,0.44922 0 0 1 0.44922,-0.44922l1.79688,0zm0,2.69531a0.44922,0.44922 0 0 1 0.44922,0.44922a0.44922,0.44922 0 0 1 -0.44922,0.44922l-1.79688,0a0.44922,0.44922 0 0 1 -0.44922,-0.44922a0.44922,0.44922 0 0 1 0.44922,-0.44922l1.79688,0zm0,2.69531a0.44922,0.44922 0 0 1 0.44922,0.44922a0.44922,0.44922 0 0 1 -0.44922,0.44922l-1.79688,0a0.44922,0.44922 0 0 1 -0.44922,-0.44922a0.44922,0.44922 0 0 1 0.44922,-0.44922l1.79688,0z"/>
 </g>
</svg>