<svg width="16" height="16" xmlns="http://www.w3.org/2000/svg" fill="context-fill" fill-opacity="context-fill-opacity">
 <g>
  <title>Layer 1</title>
  <path d="m0.85355,0.14645c-0.19526,-0.19527 -0.51184,-0.19527 -0.7071,0c-0.19527,0.19526 -0.19527,0.51184 0,0.7071l1.27055,1.27055c-0.05285,0.04837 -0.1048,0.09831 -0.15578,0.1498c-1.68832,1.7053 -1.68008,4.47614 0.01557,6.1888l6.27689,6.3401c0.26036,0.2629 0.68252,0.2629 0.94282,0l2.7864,-2.8128l3.8635,3.8636c0.1953,0.1952 0.5119,0.1952 0.7072,0c0.1952,-0.1953 0.1952,-0.5119 0,-0.7072l-15.00005,-14.99995zm9.72225,11.13645l-2.5506,2.5748l-6.03777,-6.09851c-1.31335,-1.32656 -1.31457,-3.46966 -0.01558,-4.78173c0.04989,-0.05038 0.10098,-0.09882 0.15318,-0.14532l8.45077,8.45076zm3.4524,-3.48507l-2.0448,2.06417l0.7071,0.7071l2.0503,-2.0697c1.6844,-1.71084 1.6791,-4.47391 -0.0169,-6.18692c-1.6628,-1.67956 -4.3278,-1.72298 -6.0261,-0.12162c-0.0366,0.03453 -0.0727,0.06982 -0.1084,0.10587l-0.59641,0.60353l-0.60456,-0.61063c-0.03314,-0.03347 -0.06668,-0.0663 -0.1006,-0.09847c-1.11529,-1.05763 -2.64609,-1.41158 -4.0347,-1.05937l0.87337,0.87337c0.91412,-0.05112 1.84791,0.27757 2.5513,0.98803l0.96021,0.96987c0.19579,0.19776 0.51539,0.19761 0.71099,-0.00034l0.951,-0.96243c1.2964,-1.30894 3.4025,-1.30825 4.7133,0.01575c1.312,1.32519 1.3139,3.4613 0.0159,4.78077l-0.001,0.00102z"/>
 </g>
</svg>
