<svg width="16" height="16" xmlns="http://www.w3.org/2000/svg" fill="context-fill" fill-opacity="context-fill-opacity">
 <g>
  <title>Layer 1</title>
  <g>
   <path d="m8.4965,14.8028l6.2443,-6.3034c1.6844,-1.71084 1.6791,-4.47391 -0.0169,-6.18691c-1.6628,-1.67957 -4.3278,-1.72299 -6.0261,-0.12163c-0.0366,0.03453 -0.0727,0.06982 -0.1084,0.10587l-0.59641,0.60353l-0.60456,-0.61063c-0.03314,-0.03347 -0.06668,-0.0663 -0.1006,-0.09847c-1.70188,-1.6139 -4.37129,-1.58923 -6.02661,0.08274c-1.68832,1.7053 -1.68008,4.47614 0.01557,6.1888l6.27689,6.3401c0.26036,0.2629 0.68252,0.2629 0.94282,0zm0.8035,-11.80251c1.2964,-1.30894 3.4025,-1.30825 4.7133,0.01575c1.312,1.32519 1.3139,3.4613 0.0159,4.78077l-0.001,0.00102l-6.003,6.05987l-6.03777,-6.09851c-1.31335,-1.32656 -1.31457,-3.46966 -0.01558,-4.78173c1.2934,-1.3064 3.39799,-1.30538 4.70595,0.01573l0.96021,0.96987c0.19579,0.19776 0.51539,0.19761 0.71099,-0.00034l0.951,-0.96243z"/>
  </g>
 </g>
</svg>
