<?xml version="1.0" encoding="UTF-8"?>
<svg xmlns="http://www.w3.org/2000/svg" viewBox="0 0 20 20" fill="context-fill" fill-opacity="context-fill-opacity">
  <path d="m10.6125,0.81251c0,-0.33827 -0.27423,-0.6125 -0.6125,-0.6125c-0.33827,0 -0.6125,0.27423 -0.6125,0.6125l0,18.37498c0,0.33822 0.27423,0.6125 0.6125,0.6125c0.33827,0 0.6125,-0.27428 0.6125,-0.6125l0,-18.37498zm-7.34999,1.8375c-1.3531,0 -2.45,1.0969 -2.45,2.45l0,9.79999c0,1.35313 1.0969,2.45 2.45,2.45l4.89999,0l0,-1.225l-4.89999,0c-0.67654,0 -1.225,-0.54843 -1.225,-1.225l0,-9.79999c0,-0.67654 0.54846,-1.225 1.225,-1.225l4.89999,0l0,-1.225l-4.89999,0zm8.57499,0l0,1.225l4.89999,0c0.67657,0 1.225,0.54846 1.225,1.225l0,9.79999c0,0.67657 -0.54843,1.225 -1.225,1.225l-4.89999,0l0,1.225l4.89999,0c1.35313,0 2.45,-1.09686 2.45,-2.45l0,-9.79999c0,-1.3531 -1.09686,-2.45 -2.45,-2.45l-4.89999,0z"/>
</svg>
